<svg width="191px" height="45px" viewBox="0 0 191 45" version="1.1" xmlns="http://www.w3.org/2000/svg" xmlns:xlink="http://www.w3.org/1999/xlink">
    <desc></desc>
    <defs></defs>
    <g id="logo_mamma_wrapper" stroke="none" stroke-width="1" fill="none" fill-rule="evenodd">
        <g id="logo_mamma" fill="#1D1D1B">
            <polygon id="Fill-1" points="21.546 0.0002 16.056 13.6542 10.873 0.0002 4.337 0.0002 0 25.5432 6.608 25.5432 8.738 10.8392 8.806 10.8392 14.67 25.5432 17.311 25.5432 23.442 10.8392 23.511 10.8392 25.373 25.5432 32.016 25.5432 28.154 0.0002"></polygon>
            <path d="M52.5096,0.0011 L42.6866,25.5441 L49.7336,25.5441 L51.4936,21.1051 L60.6406,21.1051 L62.3026,25.5441 L69.3826,25.5441 L59.7596,0.0011 L52.5096,0.0011 Z M56.0696,7.8931 L56.1366,7.8931 L58.8456,16.0231 L53.3226,16.0231 L56.0696,7.8931 Z" id="Fill-2"></path>
            <polygon id="Fill-3" points="100.2789 0.0002 94.7889 13.6542 89.6049 0.0002 83.0689 0.0002 78.7319 25.5432 85.3399 25.5432 87.4699 10.8392 87.5389 10.8392 93.4029 25.5432 96.0439 25.5432 102.1749 10.8392 102.2429 10.8392 104.1049 25.5432 110.7469 25.5432 106.8869 0.0002"></polygon>
            <polygon id="Fill-4" points="143.7435 0.0002 138.2545 13.6542 133.0705 0.0002 126.5345 0.0002 122.1975 25.5432 128.8055 25.5432 130.9355 10.8392 131.0035 10.8392 136.8675 25.5432 139.5085 25.5432 145.6395 10.8392 145.7085 10.8392 147.5705 25.5432 154.2125 25.5432 150.3515 0.0002"></polygon>
            <path d="M174.0303,0.0011 L164.2063,25.5441 L171.2533,25.5441 L173.0133,21.1051 L182.1603,21.1051 L183.8233,25.5441 L190.9023,25.5441 L181.2793,0.0011 L174.0303,0.0011 Z M177.5893,7.8931 L177.6573,7.8931 L180.3653,16.0231 L174.8423,16.0231 L177.5893,7.8931 Z" id="Fill-5"></path>
            <path d="M108.2358,38.3141 L106.9088,41.6141 L105.6588,38.3141 L104.0768,38.3141 L103.0308,44.4841 L104.6248,44.4841 L105.1398,40.9341 L105.1568,40.9341 L106.5728,44.4841 L107.2108,44.4841 L108.6948,40.9341 L108.7078,40.9341 L109.1588,44.4841 L110.7608,44.4841 L109.8308,38.3141 L108.2358,38.3141 Z M96.0228,38.3141 L93.6508,44.4841 L95.3558,44.4841 L95.7808,43.4121 L97.9878,43.4121 L98.3868,44.4841 L100.1008,44.4841 L97.7748,38.3141 L96.0228,38.3141 Z M96.8818,40.2241 L96.8998,40.2241 L97.5538,42.1841 L96.2228,42.1841 L96.8818,40.2241 Z M86.7448,38.3141 L86.7448,44.4841 L90.2528,44.4841 L90.2528,43.1281 L88.3478,43.1281 L88.3478,42.0611 L90.1548,42.0611 L90.1548,40.7041 L88.3478,40.7041 L88.3478,39.6711 L90.2528,39.6711 L90.2528,38.3141 L86.7448,38.3141 Z M78.7808,38.3141 L78.7808,39.6711 L80.1068,39.6711 L80.1068,44.4841 L81.7098,44.4841 L81.7098,39.6711 L83.0368,39.6711 L83.0368,38.3141 L78.7808,38.3141 Z" id="Fill-6"></path>
        </g>
    </g>
</svg>
