<?xml version="1.0" encoding="utf-8"?>
<!-- Generator: Adobe Illustrator 21.0.2, SVG Export Plug-In . SVG Version: 6.00 Build 0)  -->
<svg version="1.1" id="Layer_1" xmlns="http://www.w3.org/2000/svg" xmlns:xlink="http://www.w3.org/1999/xlink" x="0px" y="0px"
	 viewBox="0 0 553.5 220.5" style="enable-background:new 0 0 553.5 220.5;" xml:space="preserve">
<style type="text/css">
	.st0{fill-rule:evenodd;clip-rule:evenodd;}
</style>
<g>
	<path class="st0" d="M115.8,76.7c-6.9-3.1-15.8-3.8-25.5-3.8v0H62.7v0.2c0,0.1,0,0.2,0,0.5c0,2.1,0,4.2,0,6.3c0,22,0,44,0,65.9h0v7
		h27.5v0c9.6,0,18.5-0.7,25.3-3.7c12.9-5.6,20.4-17.7,20.4-36.2C135.9,94.3,128.5,82.5,115.8,76.7z M112.8,125.7
		c-4.5,9.1-15.8,9.5-29.4,9c0-14.4,0-28.7,0-43.1c0-0.3,0-0.6,0.2-0.6c18-1.4,29.2,2.4,31.3,16.8C115.9,114,115,121.2,112.8,125.7z"
		/>
	<path class="st0" d="M183.3,95.7c-7-3.2-18.8-3.2-25.8-0.4c-12.5,5-22,18.3-18.4,36c2.8,13.9,13.2,21.7,28.4,22.9
		c14.8,1.2,28.2-5.5,31.3-19.2c-5.8,0-11.6,0-17.4,0c-2.4,4.9-8.9,8-15.7,5.9c-5-1.6-8-6.5-8.2-12.5c14.2,0,28.3,0,42.5,0
		C200.4,112.1,194.2,100.7,183.3,95.7z M157.5,117.6c1.3-6.6,5.2-11.9,12.3-11.7c6.6,0.1,10.2,5.3,11.2,11.7
		C173.1,117.6,165.3,117.6,157.5,117.6z"/>
	<path class="st0" d="M343.7,94.7h-18.2l0,7.3c-3.8-5.6-8.9-9.7-18.8-8.9c-5.9,0.5-10.6,3-13.9,6.1c-5.1,4.6-7.8,11.7-8.4,19.6
		c-0.6,7.9,1,16.6,5.3,22.5c4.1,5.6,11.6,9,19.6,9c7,0,11.6-3.3,14.7-7.1c0.3-0.4,0.7-1.1,1.4-1.2c0.1,6.9,0.3,13.4-3.1,16.4
		c-3.4,3.1-12.1,2.9-15.1,0c-0.5-0.5-0.9-1.3-1.2-2c-0.3-0.7-0.6-1.4-1-2.2c-6.2,0-12.4,0-18.6,0c1.1,9.4,6.5,14.7,15.1,17
		c8.5,2.4,20.2,2.3,28.2-0.8c7.4-2.9,12.5-9.7,13.7-18.4c0.8-5.6,0.4-12.1,0.4-19C343.7,120.3,343.7,94.7,343.7,94.7z M316.1,135.6
		c-7.1,0.9-12-4.1-12.7-10.8c-1-9.1,2.1-16,9.4-17c3.2-0.4,6.2,0.3,8,1.8C327.8,115.1,327.8,134.1,316.1,135.6z"/>
	<path class="st0" d="M465.1,129.2c0-6.6,0.5-13.4,0-19.2c-1.2-14.6-15.4-17.9-31.3-16.8c-12.3,0.8-22.5,6.4-23.1,19.6
		c5.9,0,11.7,0,17.6,0c0.7-1.5,0.7-2.7,1.6-3.9c3.2-4.5,15.2-4.8,16.8,1.2c1.6,6.1-3.7,6.7-8.8,7.4c-10.7,1.6-21.4,2.3-26.6,9
		c-4.9,6.3-3.2,18,1.6,22.7c3.4,3.4,8.7,5,13.9,5.3c7.6,0.4,14.4-2.3,18.4-5.5c0.6-0.5,1.4-1.1,2.2-1.4c-0.1,1.4,0.4,3.8,1,5.1
		c6.3,0,12.7,0,19,0C464.6,146.8,465.1,137.8,465.1,129.2z M440.4,141.9c-4.7,1.6-11.6,0.7-12.9-3.7c-0.4-1.5-0.4-3.1,0.2-4.7
		c2.1-5.5,12.8-5,18.6-7.4c0-0.2,0.1-0.2,0.2-0.2c0.2,0,0.2,0.1,0.2,0.2C447,133.3,445.8,140.1,440.4,141.9z"/>
	<path class="st0" d="M238.3,139c-3.8,4.4-18,4.4-17.2-3.5c0.3-2.9,3.8-4.3,6.9-5.1c9.6-2.4,21.4-3.3,26.4-9.6
		c2.5-3.2,3.6-9.5,2.5-14.1c-0.7-3.2-3.2-6.3-5.1-7.8c-5.4-4.4-15.2-6.3-25.3-5.7c-12,0.8-21.5,5.6-22.5,18.6h17.5
		c0.4-1.6,0.6-2.9,1.7-4.1c3.5-3.5,15.2-3.1,15.1,2.2c-0.1,2.4-2.9,3.9-5.1,4.7c-7.2,2.6-18,2.8-23.5,6.1c-3.8,2.3-7.4,6.6-7.6,12.7
		c-0.2,6,1.9,10.6,5.3,13.9c10.1,9.8,36.6,9.9,46.2-0.6c2.8-3.1,4.4-7.6,4.7-12.9h-18C239.9,135.7,239.6,137.5,238.3,139z"/>
	<path class="st0" d="M386.9,120.9c0,2.6-0.2,5.2-0.4,7.3c-0.1,1.5-0.8,3.2-1.1,4.1c-1.9,4.7-9.1,9-15.3,4.9c-2-1.3-3.2-4.2-3.3-7
		c-0.4-10.6-0.3-35.4-0.3-35.4s-4.2,0-10.6,0h-0.6c-2.2,0-4.7,0-7.3,0c0,0,0,0,0,0h-0.4v25.9h0.1c-0.3,14.4,0.6,27.4,10.6,31.8
		c1.5,0.7,3.5,1.3,5.3,1.6c8,1.3,15.1-1,19.4-4.5c1.6-1.3,2.6-3.2,4.1-4.5v7.6h18.6v-58h-18.6V120.9z"/>
	<rect x="470" y="73" class="st0" width="18.9" height="79.7"/>
	<rect x="262" y="94.9" class="st0" width="19" height="57.8"/>
	<rect x="262" y="73" class="st0" width="19" height="14.7"/>
</g>
</svg>
