<?xml version="1.0" encoding="utf-8"?>
<!-- Generator: Adobe Illustrator 25.2.1, SVG Export Plug-In . SVG Version: 6.00 Build 0)  -->
<svg version="1.1" id="Слой_1" xmlns="http://www.w3.org/2000/svg" xmlns:xlink="http://www.w3.org/1999/xlink" x="0px" y="0px"
	 viewBox="0 0 286.4 162.1" style="enable-background:new 0 0 286.4 162.1;" xml:space="preserve">
<style type="text/css">
	.st0{fill:#231F20;}
</style>
<g>
	<g>
		<path class="st0" d="M225.8,150.6c1.7,0,3-1.1,3-2.5c0-1.6-1-2.2-2.9-2.5c-1.8-0.3-2.1-0.7-2.1-1.5s0.6-1.4,1.8-1.4s1.8,0.4,2,1.5
			h0.9c-0.2-1.5-1.2-2.4-3-2.4c-1.6,0-2.8,1-2.8,2.3c0,1.5,1.1,2.1,2.9,2.4c1.6,0.3,2.1,0.7,2.1,1.6s-0.9,1.6-2,1.6
			c-1.7,0-2.1-0.9-2.3-1.9h-1C222.6,149.3,223.5,150.6,225.8,150.6 M214.3,150.5h1v-7.4l4.3,7.4h1.2v-8.6h-1v7.1l-4.2-7.1h-1.4
			L214.3,150.5L214.3,150.5z M208.4,150.6c2.5,0,4.2-1.9,4.2-4.4v-0.1c0-2.4-1.7-4.3-4.2-4.3s-4.2,1.9-4.2,4.4v0.1
			C204.1,148.7,205.9,150.6,208.4,150.6 M208.4,149.7c-1.8,0-3.2-1.4-3.2-3.5v-0.1c0-2,1.2-3.5,3.1-3.5c2,0,3.1,1.6,3.1,3.5v0.1
			C211.5,148.3,210.3,149.7,208.4,149.7 M201.3,150.5h1v-8.6h-1V150.5z M196.3,150.5h1v-7.7h2.5v-0.9h-6v0.9h2.5V150.5z
			 M189.5,150.6c1.9,0,3.3-1,3.6-3h-1c-0.2,1.4-1.2,2.1-2.6,2.1c-1.8,0-3-1.3-3-3.5v-0.1c0-2.2,1.2-3.5,3-3.5c1.5,0,2.2,0.7,2.4,2h1
			c-0.2-1.9-1.7-2.8-3.5-2.8c-2.3,0-4,1.8-4,4.4v0.1C185.4,148.9,187,150.6,189.5,150.6 M180.5,150.6c2.2,0,3.3-1.3,3.3-3.4v-5.3h-1
			v5.2c0,2.1-0.8,2.7-2.2,2.7c-1.4,0-2.1-0.7-2.1-2.5V142h-1v5.4C177.4,149.4,178.6,150.6,180.5,150.6 M169.2,150.5h2.2
			c3,0,4.4-1.9,4.4-4.3v-0.1c0-2.4-1.4-4.2-4.3-4.2h-2.3C169.2,141.9,169.2,150.5,169.2,150.5z M170.2,149.6v-6.9h1.2
			c2.4,0,3.3,1.4,3.3,3.4v0.1c0,2.1-1.1,3.4-3.3,3.4H170.2z M163.3,150.6c2.5,0,4.2-1.9,4.2-4.4v-0.1c0-2.4-1.7-4.3-4.2-4.3
			s-4.2,1.9-4.2,4.4v0.1C159,148.7,160.7,150.6,163.3,150.6 M163.3,149.7c-1.8,0-3.2-1.4-3.2-3.5v-0.1c0-2,1.2-3.5,3.1-3.5
			c2,0,3.1,1.6,3.1,3.5v0.1C166.3,148.3,165.2,149.7,163.3,149.7 M153.1,145.9v-3.2h1.6c1.2,0,1.9,0.4,1.9,1.5l0,0
			c0,1.1-0.7,1.6-1.9,1.6L153.1,145.9L153.1,145.9z M152,150.5h1v-3.7h1.4l2.6,3.7h1.2l-2.6-3.8c1.2-0.2,2.1-0.9,2.1-2.3l0,0
			c0-1.7-1.4-2.4-3-2.4h-2.6v8.5H152z M146.1,146.2v-3.4h1.5c1.2,0,1.9,0.5,1.9,1.7l0,0c0,1.1-0.7,1.7-1.9,1.7H146.1z M145,150.5h1
			V147h1.4c1.6,0,3-0.7,3-2.5l0,0c0-1.8-1.4-2.5-3-2.5H145V150.5z"/>
		<path class="st0" d="M198.3,136.2c2.2,0,3.7-1.3,3.7-3.8v-0.6h-3.5v0.9h2.5c0,1.5-0.8,2.7-2.7,2.7c-2,0-3.1-1.4-3.1-3.5v-0.1
			c0-2.1,1.1-3.5,3.1-3.5c1.2,0,2.2,0.5,2.4,1.9h1c-0.3-1.9-1.8-2.7-3.5-2.7c-2.5,0-4.2,1.9-4.2,4.4v0.1
			C194.2,134.4,195.7,136.2,198.3,136.2 M185.9,136.1h1v-7.4l4.3,7.4h1.2v-8.6h-1v7.1l-4.2-7.1h-1.4v8.6H185.9z M182.6,136.1h1v-8.6
			h-1V136.1z M176.7,136.2c2.5,0,4.2-1.9,4.2-4.4v-0.1c0-2.4-1.7-4.3-4.2-4.3s-4.2,1.9-4.2,4.4v0.1
			C172.4,134.3,174.2,136.2,176.7,136.2 M176.7,135.3c-1.8,0-3.2-1.4-3.2-3.5v-0.1c0-2,1.2-3.5,3.1-3.5c2,0,3.1,1.6,3.1,3.5v0.1
			C179.8,133.9,178.6,135.3,176.7,135.3 M164.5,136.1h2.2c3,0,4.4-1.9,4.4-4.3v-0.1c0-2.4-1.4-4.2-4.3-4.2h-2.3
			C164.5,127.5,164.5,136.1,164.5,136.1z M165.5,135.2v-6.9h1.2c2.4,0,3.3,1.4,3.3,3.4v0.1c0,2.1-1.1,3.4-3.3,3.4H165.5z
			 M154.8,136.1h1v-3.8h3.1v-0.9h-3.1v-3h4v-0.9h-5V136.1z M148.9,136.2c2.5,0,4.2-1.9,4.2-4.4v-0.1c0-2.4-1.7-4.3-4.2-4.3
			s-4.2,1.9-4.2,4.4v0.1C144.6,134.3,146.3,136.2,148.9,136.2 M148.9,135.3c-1.8,0-3.2-1.4-3.2-3.5v-0.1c0-2,1.2-3.5,3.1-3.5
			c2,0,3.1,1.6,3.1,3.5v0.1C152,133.9,150.8,135.3,148.9,135.3"/>
	</g>
	<g>
		<polygon class="st0" points="179.9,12 175.8,59.5 170.1,12 157.2,12 151.6,59.5 147.2,12 134.4,12 144.4,107 157.2,107 
			163.6,60.1 170.1,107 182.8,107 192.7,12 		"/>
		<path class="st0" d="M216,48.3l3.3,39h-6.7L216,48.3z M209.7,12l-12.8,95h12.8l1.5-9.5h9.8l1.5,9.5h12.8l-13-95H209.7z"/>
		<polygon class="st0" points="264.6,12 256.7,49.3 248.9,12 236.1,12 250.3,74.4 250.4,74.4 250.4,106.9 263.2,106.9 263.2,74.4 
			263.3,74.4 277.4,12 277.4,12 		"/>
		<path id="polygon4" class="st0" d="M21.6,11.6H8.9v94.9h12.7V64.9l6.1,41.6h10.1l6.3-42.4v42.4h12.9V11.6h-13L32.9,64.1L21.6,11.6
			z"/>
		<path id="polygon6" class="st0" d="M78.8,11.5H66l14.1,62.4h0.1v32.5H93V73.9h0.1l14.1-62.4H94.5l-7.9,37.3L78.8,11.5z"/>
	</g>
</g>
</svg>
