<?xml version="1.0" encoding="utf-8"?>
<!-- Generator: Adobe Illustrator 25.2.1, SVG Export Plug-In . SVG Version: 6.00 Build 0)  -->
<svg version="1.1"
	 id="svg8" xmlns:cc="http://creativecommons.org/ns#" xmlns:dc="http://purl.org/dc/elements/1.1/" xmlns:inkscape="http://www.inkscape.org/namespaces/inkscape" xmlns:rdf="http://www.w3.org/1999/02/22-rdf-syntax-ns#" xmlns:sodipodi="http://sodipodi.sourceforge.net/DTD/sodipodi-0.dtd" xmlns:svg="http://www.w3.org/2000/svg"
	 xmlns="http://www.w3.org/2000/svg" xmlns:xlink="http://www.w3.org/1999/xlink" x="0px" y="0px" viewBox="0 0 374.3 85.3"
	 style="enable-background:new 0 0 374.3 85.3;" xml:space="preserve">
<g>
	<path id="path841" inkscape:connector-curvature="0" d="M14.7,3.5H0v80.6h14.7L14.7,3.5z"/>
	<path id="path843" inkscape:connector-curvature="0" d="M77.5,67c-2.6,2.8-7.6,6.4-13.8,6.4c-7.8,0-14-5.3-14.8-13.1h38
		c0.2-1.2,0.3-2.7,0.3-4.2C87.2,40.8,76.4,28,61.3,28C45,28,34.6,41.4,34.6,56.7c0,17.3,12.3,28.6,28.7,28.6
		c8.5,0,17.2-3.5,22.5-9.9L77.5,67z M49.5,49.5c0.7-5,5.7-9.7,11.8-9.7c6,0,10.4,4.8,10.9,9.7H49.5z"/>
	<path id="path845" inkscape:connector-curvature="0" d="M146.6,3.4c-3.1-0.8-5.8-1-8.7-1c-7.5,0-13.2,2.7-17.1,6.5
		C117,12.6,115,18,115,26.8v2.3h-14.1v12.5H115v42.6h14.7V41.6h17V29.1h-17v-1.7c0-5.1,0.8-7.2,2-8.7c1.8-2.2,4.6-3.2,8.3-3.2
		c1.4,0,3.2,0.2,4.4,0.6L146.6,3.4z"/>
	<path id="path847" inkscape:connector-curvature="0" d="M204.6,71.4c-1,0.2-3.8,0.6-6,0.6c-3.6,0-6-1-7.5-2.7
		c-1.2-1.5-1.8-3.5-1.8-6.9v-21h18.1V28.8h-18.1V13.5h-14.7v15.3h-15.3v12.5h15.3v19.3c0,7.8,1.2,12.7,4.1,16.5
		c3.7,5,10.2,7.9,19,7.9c2.8,0,7.2-0.5,9.2-1.1L204.6,71.4z"/>
	<path id="path849" inkscape:connector-curvature="0" d="M243.6,29h-14.7V84h14.7V29z M226.6,9.4c0,5.3,4.3,9.4,9.6,9.4
		c5.3,0,9.6-4.1,9.6-9.4c0-5.3-4.3-9.4-9.6-9.4C230.9,0,226.6,4.1,226.6,9.4L226.6,9.4z"/>
	<path id="path851" inkscape:connector-curvature="0" d="M306.3,66.8c-2.6,2.8-7.6,6.4-13.8,6.4c-7.8,0-14-5.3-14.8-13.1h38
		c0.2-1.2,0.3-2.7,0.3-4.2c0-15.3-10.7-28.2-25.9-28.2c-16.3,0-26.7,13.4-26.7,28.7c0,17.3,12.3,28.6,28.7,28.6
		c8.5,0,17.2-3.5,22.5-9.9L306.3,66.8z M278.4,49.3c0.7-5,5.7-9.7,11.8-9.7c6,0,10.4,4.8,10.9,9.7H278.4z"/>
	<path id="path853" inkscape:connector-curvature="0" d="M330.5,77.8c6.4,4.8,14.5,7.4,22,7.4c11.5,0,21.8-6.5,21.8-17
		c0-19.1-26.6-16.2-26.6-23.4c0-2.8,3.4-4.4,7.5-4.4c4,0,7.7,1.7,10.5,3.7l6.9-10.7c-3.6-2.8-11.4-5.6-18.5-5.6
		c-10.9,0-21,6.6-21,17.1c0,17.7,26.6,14.8,26.6,23.1c0,2.7-3.1,4.7-7,4.7c-5.5,0-11.3-2-15-5.5L330.5,77.8z"/>
</g>
</svg>
